# xmcd CD database file
#
# Track frame offsets:
#	150
#	14950
#	32043
#	50928
#	68263
#	84928
#	99865
#	117983
#	130205
#	141278
#	161400
#	173760
#	186945
#	209233
#
# Disc length: 3105 seconds
#
# Revision: 0
# Processed by: cddbd v1.5.1PL2 Copyright (c) Steve Scherf et al.
# Submitted via: CDex 1.51
#
DISCID=c70c1f0e
DTITLE=姜建華（ジャン・ジェンホワ） Jiang Jian-Hua - グリーンスリーヴス green sleeves
DYEAR=2005
DGENRE=Instrumental
TTITLE0=グリーンスリーヴス（イギリス民謡）
TTITLE1=グノシェンヌ No.1（サティ）
TTITLE2=ノクターン No.20（ショパン）
TTITLE3=主をほめたたえよ（モーツァルト）
TTITLE4=ジムノペディ No.1（サティ）
TTITLE5=愛の小路（プーランク）
TTITLE6=シチリアーノ（フォーレ）
TTITLE7=モーツァルトの子守歌（フリース）
TTITLE8=アレルヤ（モーツァルト）
TTITLE9=アヴェ・マリア（シューベルト）
TTITLE10=愛の挨拶（エルガー）
TTITLE11=トロイメライ（シューマン）
TTITLE12=月の光（ドビュッシー）
TTITLE13=ヴォカリーズ（ラフマニノフ）
EXTD=YEAR: 2005
EXTT0=
EXTT1=
EXTT2=
EXTT3=
EXTT4=
EXTT5=
EXTT6=
EXTT7=
EXTT8=
EXTT9=
EXTT10=
EXTT11=
EXTT12=
EXTT13=
PLAYORDER=
